<svg xmlns="http://www.w3.org/2000/svg" viewBox="0 0 31.24 26.2"><defs><style>.cls-1{fill:#fff;}</style></defs><g id="Layer_2" data-name="Layer 2"><g id="Layer_1-2" data-name="Layer 1"><g id="Layer_2-2" data-name="Layer 2"><g id="Layer_1-2-2" data-name="Layer 1-2"><g id="Group_16" data-name="Group 16"><g id="Path_2" data-name="Path 2"><rect class="cls-1" x="14.59" y="-8.99" width="2" height="32" transform="translate(3.19 18.77) rotate(-67.67)"/></g><g id="Path_2-2" data-name="Path 2"><rect class="cls-1" x="-0.39" y="6.01" width="32" height="2" transform="translate(-1.49 6.46) rotate(-22.33)"/></g><g id="MENU"><path class="cls-1" d="M0,26v-8.4H1.92L4.15,25.4h.16l2.23-7.77H8.46V26h-1V18.29H7.32L5.1,26H3.36L1.14,18.29H1V26Z"/><path class="cls-1" d="M10.38,26v-8.4h5.17v.92H11.39v2.8h3.83v.92H11.39v2.85h4.22V26Z"/><path class="cls-1" d="M17.14,26v-8.4h1.95L22,25.4h.16V17.63h1V26h-2L18.3,18.26h-.17V26Z"/><path class="cls-1" d="M28.14,26.2a3.81,3.81,0,0,1-1.63-.33,2.38,2.38,0,0,1-1.08-1A3.14,3.14,0,0,1,25,23.23v-5.6h1v5.61a2,2,0,0,0,.59,1.57,2.61,2.61,0,0,0,3.1,0,2,2,0,0,0,.55-1.55V17.63h1v5.6a3.19,3.19,0,0,1-.39,1.63,2.38,2.38,0,0,1-1.08,1A3.82,3.82,0,0,1,28.14,26.2Z"/></g></g></g></g></g></g></svg>