<svg xmlns="http://www.w3.org/2000/svg" viewBox="0 0 31.21 23.31"><defs><style>.cls-1{fill:#fff;}</style></defs><g id="Layer_2" data-name="Layer 2"><g id="Layer_1-2" data-name="Layer 1"><g id="Layer_2-2" data-name="Layer 2"><g id="Layer_1-2-2" data-name="Layer 1-2"><g id="Group_16" data-name="Group 16"><g id="menu_icon" data-name="menu icon"><g id="Path_2" data-name="Path 2"><rect class="cls-1" width="31.21" height="1.99"/></g><g id="Path_3" data-name="Path 3"><rect class="cls-1" y="7.19" width="31.21" height="1.99"/></g></g><g id="MENU"><path class="cls-1" d="M.05,23.14V14.76H2l2.22,7.75h.16l2.28-7.75H8.48v8.38h-1V15.42H7.35L5.13,23.14H3.4L1.18,15.42H1v7.72Z"/><path class="cls-1" d="M10.4,23.14V14.76h5.19v.92H11.41v2.79h3.82v.92H11.41v2.84h4.18v.91Z"/><path class="cls-1" d="M17.14,23.14V14.76h1.95L22,22.51h.16V14.76h1v8.38H21.21L18.3,15.39h-.17v7.75Z"/><path class="cls-1" d="M28.11,23.31a3.77,3.77,0,0,1-1.62-.37,2.38,2.38,0,0,1-1.08-1A3.17,3.17,0,0,1,25,20.32V14.76h1v5.6a2,2,0,0,0,.54,1.58,2.6,2.6,0,0,0,3.09,0,2,2,0,0,0,.55-1.54V14.76h1v5.59a3.16,3.16,0,0,1-.37,1.59,2.43,2.43,0,0,1-1.08,1A3.86,3.86,0,0,1,28.11,23.31Z"/></g></g></g></g></g></g></svg>