<svg xmlns="http://www.w3.org/2000/svg" viewBox="0 0 32 23.37">
  <defs>
    <style>.cls-1{fill:#fff;}.cls-2{isolation:isolate;}
    </style>
  </defs>
  <g id="Layer_2" data-name="Layer 2">
    <g id="Layer_1-2" data-name="Layer 1">
      <g id="Group_16" data-name="Group 16">
        <g id="menu_icon" data-name="menu icon">
          <g id="Path_2" data-name="Path 2">
            <rect class="cls-1" width="32" height="2"/>
          </g><g id="Path_3" data-name="Path 3">
          <rect class="cls-1" y="7.21" width="32" height="2"/>
        </g>
      </g>
      <g id="MENU" class="cls-2">
        <g class="cls-2">
          <path class="cls-1" d="M.41,23.2V14.8H2.33l2.23,7.77h.16L7,14.8H8.87v8.4h-1V15.46H7.73L5.51,23.2H3.77L1.55,15.46H1.38V23.2Z"/>
          <path class="cls-1" d="M10.79,23.2V14.8H16v.92H11.8v2.8h3.83v.92H11.8v2.85H16v.91Z"/>
          <path class="cls-1" d="M17.55,23.2V14.8H19.5l2.93,7.77h.16V14.8h1v8.4H21.63l-2.92-7.77h-.17V23.2Z"/>
          <path class="cls-1" d="M28.55,23.37A3.76,3.76,0,0,1,26.92,23a2.45,2.45,0,0,1-1.08-1,3.17,3.17,0,0,1-.38-1.63V14.8h1v5.61A2.06,2.06,0,0,0,27,22a2.61,2.61,0,0,0,3.1,0,2,2,0,0,0,.55-1.55V14.8h1v5.6A3.27,3.27,0,0,1,31.28,22a2.48,2.48,0,0,1-1.09,1A3.84,3.84,0,0,1,28.55,23.37Z"/>
        </g>
      </g>
    </g>
  </g>
</g>
</svg>
