<svg xmlns="http://www.w3.org/2000/svg" viewBox="0 0 32 29.58"><defs><style>.cls-1{fill:#fff;}.cls-2{isolation:isolate;}</style></defs><g id="Layer_2" data-name="Layer 2"><g id="Layer_1-2" data-name="Layer 1"><g id="Group_16" data-name="Group 16"><g id="menu_icon" data-name="menu icon"><g id="Path_1" data-name="Path 1"><rect class="cls-1" width="32" height="2"/></g><g id="Path_2" data-name="Path 2"><rect class="cls-1" y="7.21" width="32" height="2"/></g><g id="Path_3" data-name="Path 3"><rect class="cls-1" y="14.41" width="32" height="2"/></g></g><g id="MENU" class="cls-2"><g class="cls-2"><path class="cls-1" d="M.41,29.41V21H2.33l2.23,7.76h.16L7,21H8.87v8.4h-1V21.67H7.73L5.51,29.41H3.77L1.55,21.67H1.38v7.74Z"/><path class="cls-1" d="M10.79,29.41V21H16v.91H11.8v2.81h3.83v.91H11.8V28.5H16v.91Z"/><path class="cls-1" d="M17.55,29.41V21H19.5l2.93,7.76h.16V21h1v8.4H21.63l-2.92-7.78h-.17v7.78Z"/><path class="cls-1" d="M28.55,29.58a3.62,3.62,0,0,1-1.63-.34,2.38,2.38,0,0,1-1.08-1,3.19,3.19,0,0,1-.38-1.64V21h1v5.6A2,2,0,0,0,27,28.16a2.57,2.57,0,0,0,3.1,0,2,2,0,0,0,.55-1.55V21h1V26.6a3.29,3.29,0,0,1-.38,1.64,2.4,2.4,0,0,1-1.09,1A3.7,3.7,0,0,1,28.55,29.58Z"/></g></g></g></g></g></svg>